<?xml version="1.0" encoding="iso-8859-1"?>
<!-- Generator: Adobe Illustrator 19.0.0, SVG Export Plug-In . SVG Version: 6.00 Build 0)  -->
<svg version="1.1" id="Layer_1" xmlns="http://www.w3.org/2000/svg" xmlns:xlink="http://www.w3.org/1999/xlink" x="0px" y="0px"
	 viewBox="0 0 460.047 460.047" style="enable-background:new 0 0 460.047 460.047;" xml:space="preserve">
<g>
	<g>
		<path d="M439.616,1.029L9.615,166.405c-5.625,2.163-9.409,7.482-9.607,13.505c-0.199,6.023,3.225,11.58,8.694,14.11l175.93,81.379
			l81.379,175.93c2.46,5.318,7.782,8.703,13.612,8.703c0.165,0,0.332-0.002,0.498-0.008c6.023-0.199,11.342-3.983,13.505-9.607
			c0.755-1.963,164.899-428.76,165.398-430.069C463.713,7.965,451.423-3.511,439.616,1.029z M53.478,181.677L384.415,54.402
			L192.728,246.089L53.478,181.677z M278.353,406.552l-64.412-139.25L405.629,75.614L278.353,406.552z"/>
	</g>
</g>
<g>
</g>
<g>
</g>
<g>
</g>
<g>
</g>
<g>
</g>
<g>
</g>
<g>
</g>
<g>
</g>
<g>
</g>
<g>
</g>
<g>
</g>
<g>
</g>
<g>
</g>
<g>
</g>
<g>
</g>
</svg>
